# AST/ASF file generated using VICON BodyLanguage
# -----------------------------------------------
:version 1.10
:name VICON
:units
  mass 1.0
  length 0.45
  angle deg
:documentation
   .ast/.asf automatically generated from VICON data using
   VICON BodyBuilder and BodyLanguage model FoxedUp or BRILLIANT.MOD
:root
   order TX TY TZ RX RY RZ
   axis XYZ
   position 0 0 0  
   orientation 0 0 0 
:bonedata
  begin
     id 1 
     name lhipjoint
     direction 0.714689 -0.624256 0.315473 
     length 2.45343 
     axis 0 0 0  XYZ
  end
  begin
     id 2 
     name lfemur
     direction 0.34202 -0.939693 0  
     length 6.59069  
     axis 0 0 20  XYZ
    dof rx ry rz
    limits (-160.0 20.0)
           (-70.0 70.0)
           (-60.0 70.0)
  end
  begin
     id 3 
     name ltibia
     direction 0.34202 -0.939693 0   
     length 6.73476   
     axis 0 0 20   XYZ
    dof rx
    limits (-10.0 170.0)
  end
  begin
     id 4 
     name lfoot
     direction 0.0718085 -0.197292 0.977711   
     length 1.52607   
     axis -90 7.62852e-016 20   XYZ
    dof rx rz
    limits (-45.0 90.0)
           (-70.0 20.0)
  end
  begin
     id 5 
     name ltoes
     direction 1.53553e-011 -4.22024e-011 1   
     length 0.777832   
     axis -90 7.62852e-016 20   XYZ
    dof rx
    limits (-90.0 20.0)
  end
  begin
     id 6 
     name rhipjoint
     direction -0.727419 -0.612432 0.309497   
     length 2.50079  
     axis 0 0 0  XYZ 
  end
  begin
     id 7 
     name rfemur
     direction -0.34202 -0.939693 0   
     length 6.51665   
     axis 0 0 -20   XYZ
    dof rx ry rz
    limits (-160.0 20.0)
           (-70.0 70.0)
           (-70.0 60.0)
  end
  begin
     id 8 
     name rtibia
     direction -0.34202 -0.939693 0   
     length 6.48919   
     axis 0 0 -20   XYZ
    dof rx
    limits (-10.0 170.0)
 end
 begin
     id 9 
     name rfoot
     direction -0.112205 -0.308282 0.944655   
     length 1.68717  
     axis -90 -7.62852e-016 -20   XYZ
    dof rx rz
    limits (-45.0 90.0)
           (-20.0 70.0)
  end
  begin
     id 10 
     name rtoes
     direction -1.53583e-011 -4.21993e-011 1   
     length 0.846859   
     axis -90 -7.62852e-016 -20   XYZ
    dof rx
    limits (-90.0 20.0)
  end
  begin
     id 11 
     name lowerback
     direction -0.00119603 0.996364 -0.0851956   
     length 1.67242   
     axis 0 0 0   XYZ
    dof rx ry rz
    limits (-20.0 45.0)
           (-30.0 30.0)
           (-30.0 30.0)
  end
  begin
     id 12 
     name upperback
     direction -0.00531001 0.998318 0.0577248   
     length 1.64819   
     axis 0 0 0   XYZ
    dof rx ry rz
    limits (-20.0 45.0)
           (-30.0 30.0)
           (-30.0 30.0)
  end
  begin
     id 13 
     name thorax
     direction -0.00653676 0.995132 0.0983291   
     length 1.67429   
     axis 0 0 0   XYZ
    dof rx ry rz
    limits (-20.0 45.0)
           (-30.0 30.0)
           (-30.0 30.0)
  end
  begin
     id 14 
     name lowerneck
     direction 0.0141424 0.999886 0.00525412   
     length 1.59623   
     axis 0 0 0   XYZ
    dof rx ry rz
    limits (-20.0 45.0)
           (-30.0 30.0)
           (-30.0 30.0)
  end
  begin
     id 15 
     name upperneck
     direction -0.0640064 0.987178 -0.146232   
     length 1.59576   
     axis 0 0 0   XYZ
    dof rx ry rz
    limits (-20.0 45.0)
           (-30.0 30.0)
           (-30.0 30.0)
  end
  begin
     id 16
     name head
     direction -0.0222942 0.998496 -0.0500859  
     length 1.60959  
     axis 0 0 0   XYZ
    dof rx ry rz
    limits (-20.0 45.0)
           (-30.0 30.0)
           (-30.0 30.0)
  end
  begin
     id 17 
     name lclavicle
     direction 0.908549 0.392612 0.142806  
     length 2.80649  
     axis 0 0 0   XYZ
    dof ry rz
    limits (-20.0 10.0)
           (0.0 20.0)
  end
  begin
     id 18 
     name lhumerus
     direction 1 -4.48968e-011 1.08832e-028   
     length 4.2884   
     axis -180 -30 -90   XYZ
    dof rx ry rz
    limits (-60.0 90.0)
           (-90.0 90.0)
           (-90.0 90.0)
  end
  begin
     id 19
     name lradius
     direction 1 -4.48952e-011 -3.02642e-028   
     length 3.06552   
     axis -180 -30 -90   XYZ
    dof rx
    limits (-10.0 170.0)
  end
  begin
     id 20
     name lwrist
     direction 1 -4.49014e-011 1.58672e-027   
     length 1.53276   
     axis -1.65735e-015 90 90   XYZ
    dof ry
    limits (-180.0 0.0)
 end
  begin
     id 21 
     name lhand
     direction 1 -4.48928e-011 3.17344e-027   
     length 0.753045   
     axis -2.02492e-015 90 90   XYZ
    dof rx rz
    limits (-90.0 90.0)
           (-45.0 45.0)
  end
  begin
     id 22 
     name lfingers
     direction 1 -4.48958e-011 6.34687e-027   
     length 0.607124   
     axis -4.04985e-015 90 90   XYZ
    dof rx
    limits (0.0 90.0)
  end
  begin
     id 23
     name lthumb
     direction 0.707107 -6.34905e-011 0.707107   
     length 0.871712   
     axis -90 45 2.85299e-015   XYZ
    dof rx rz
    limits (-45.0 45.0)
           (-45.0 45.0)
  end
  begin
     id 24 
     name rclavicle
     direction -0.885098 0.45949 0.0739604   
     length 2.9478  
     axis 0 0 0   XYZ 
    dof ry rz
    limits (-10.0 20.0)
           (-20.0 0.0)
  end
  begin
     id 25 
     name rhumerus
     direction -1 -4.4898e-011 -2.61739e-027  
     length 4.52172   
     axis -180 30 90   XYZ
    dof rx ry rz
    limits (-90.0 60.0)
           (-90.0 90.0)
           (-90.0 90.0)
  end
  begin
     id 26 
     name rradius
     direction -1 -4.48945e-011 9.02552e-028   
     length 2.8914   
     axis -180 30 90   XYZ
    dof rx
    limits (-10.0 170.0)
  end
  begin
     id 27 
     name rwrist
     direction -1 -4.49018e-011 1.58672e-027   
     length 1.4457   
     axis -1.65735e-015 -90 -90   XYZ
    dof ry
    limits (-180.0 0.0)
  end
  begin
     id 28
     name rhand
     direction -1 -4.48825e-011 3.17344e-027   
     length 0.680541   
     axis -2.02492e-015 -90 -90   XYZ
    dof rx rz
    limits (-90.0 90.0)
           (-45.0 45.0)
  end
  begin
     id 29
     name rfingers
     direction -1 -4.49067e-011 6.34687e-027   
     length 0.54867   
     axis -4.04985e-015 -90 -90   XYZ
    dof rx
    limits (0.0 90.0)
  end
  begin
     id 30
     name rthumb
     direction -0.707107 -6.34833e-011 0.707107   
     length 0.787783   
     axis -90 -45 -2.85299e-015   XYZ
    dof rx rz
    limits (-45.0 45.0)
           (-45.0 45.0)
  end
:hierarchy
  begin
    root lhipjoint rhipjoint lowerback
    lhipjoint lfemur
    lfemur ltibia
    ltibia lfoot
    lfoot ltoes
    rhipjoint rfemur
    rfemur rtibia
    rtibia rfoot
    rfoot rtoes
    lowerback upperback
    upperback thorax
    thorax lowerneck lclavicle rclavicle
    lowerneck upperneck
    upperneck head
    lclavicle lhumerus
    lhumerus lradius
    lradius lwrist
    lwrist lhand lthumb
    lhand lfingers
    rclavicle rhumerus
    rhumerus rradius
    rradius rwrist
    rwrist rhand rthumb
    rhand rfingers
  end

#!OML:ASF E:\emotionWalksFemale\Project 1\Capture day 1\Session 1\Female1.ASF
:FULLY-SPECIFIED
:DEGREES
636
root 5.56328 15.4026 -13.2574 174.742 -52.5626 186.785
lowerback 8.65391 2.38633 4.53964
upperback -3.94843 3.76393 0.372056
thorax -8.79697 1.56307 -2.74796
lowerneck -8.98013 -6.53554 -10.5089
upperneck 17.4425 -9.38383 9.07094
head 7.76837 -4.56069 3.77257
rclavicle -6.22444e-015 -9.93923e-015
rhumerus -25.5666 11.6328 -83.037
rradius 36.4645
rwrist 16.1109
rhand -3.77238 -52.648
rfingers 7.12502
rthumb 21.9725 -81.42
lclavicle -6.22444e-015 -9.93923e-015
lhumerus -53.6194 8.16859 72.1537
lradius 37.6732
lwrist -10.9649
lhand -5.39608 -30.8068
lfingers 7.12502
lthumb 20.4128 -1.85971
rfemur 16.2197 13.2725 36.7062
rtibia 3.49861e-014
rfoot -7.48794 -27.0862
rtoes -5.75354
lfemur -29.7394 -9.41923 -15.2383
ltibia 34.2127
lfoot -14.991 17.9841
ltoes -21.9295
637
root 5.44791 15.4032 -13.3397 174.912 -52.485 186.771
lowerback 8.45419 2.39864 4.51824
upperback -3.93318 3.77097 0.458132
thorax -8.66981 1.57433 -2.63401
lowerneck -8.92267 -6.65424 -10.5848
upperneck 17.1777 -9.50094 9.03322
head 7.68632 -4.62162 3.75992
rclavicle -3.95085e-014 -2.38542e-015
rhumerus -25.0915 12.1508 -83.1018
rradius 36.8686
rwrist 15.4562
rhand -1.27727 -52.7828
rfingers 7.12502
rthumb 24.3664 -81.2537
lclavicle -3.95085e-014 -2.38542e-015
lhumerus -53.7757 8.70815 71.8444
lradius 37.6043
lwrist -10.8793
lhand -5.06227 -30.6604
lfingers 7.12502
lthumb 20.7336 -1.74798
rfemur 16.5899 12.8167 36.6998
rtibia -2.38542e-014
rfoot -7.45798 -26.9024
rtoes -6.38464
lfemur -29.9522 -11.5838 -14.3795
ltibia 32.1084
lfoot -15.4651 18.9344
ltoes -21.2204
638
root 5.33203 15.397 -13.4238 175.092 -52.2493 186.655
lowerback 8.33744 2.46926 4.40829
upperback -3.90408 3.84908 0.520485
thorax -8.57476 1.62395 -2.5107
lowerneck -8.92348 -6.70215 -10.8011
upperneck 16.9598 -9.54185 9.22077
head 7.64007 -4.63616 3.85254
rclavicle -2.90971e-014 -1.07344e-014
rhumerus -24.7294 12.8575 -83.2617
rradius 37.2662
rwrist 14.6194
rhand -1.74751 -52.8186
rfingers 7.12502
rthumb 23.9155 -81.3494
lclavicle -2.90971e-014 -1.07344e-014
lhumerus -53.9904 9.4465 71.4075
lradius 37.568
lwrist -11.0323
lhand -4.94537 -29.8594
lfingers 7.12502
lthumb 20.8459 -0.959305
rfemur 17.0752 12.5017 36.6477
rtibia -7.95139e-015
rfoot -7.4779 -26.6253
rtoes -6.6522
lfemur -30.1118 -13.9091 -13.4524
ltibia 30.1905
lfoot -15.7119 20.6048
ltoes -22.5616
639
root 5.21584 15.3877 -13.5051 175.039 -51.8987 186.761
lowerback 8.40694 2.51337 4.55906
upperback -3.92332 3.93333 0.56715
thorax -8.6247 1.65514 -2.56199
lowerneck -8.71383 -6.74435 -10.254
upperneck 16.583 -9.58023 8.78099
head 7.43462 -4.65867 3.61991
rclavicle 8.16011e-014 6.36111e-015
rhumerus -24.4553 13.4711 -83.4721
rradius 37.6613
rwrist 14.2607
rhand -2.85375 -52.6414
rfingers 7.12502
rthumb 22.8543 -81.3072
lclavicle 8.16011e-014 6.36111e-015
lhumerus -54.2978 9.85183 71.0215
lradius 37.5495
lwrist -10.9986
lhand -4.735 -29.6672
lfingers 7.12502
lthumb 21.048 -0.789453
rfemur 17.613 12.2778 36.7147
rtibia 3.97569e-014
rfoot -7.88405 -26.2613
rtoes -5.97171
lfemur -30.2636 -16.8266 -12.0647
ltibia 28.5012
lfoot -16.746 22.6469
ltoes -20.5873
640
root 5.09685 15.3863 -13.5798 175.086 -51.5889 186.816
lowerback 8.50225 2.54614 4.93797
upperback -4.00654 4.02312 0.468332
thorax -8.73424 1.66812 -2.89894
lowerneck -8.77584 -6.7918 -10.803
upperneck 16.6425 -9.678 9.36778
head 7.53246 -4.69265 3.88984
rclavicle 1.28962e-014 -3.37934e-015
rhumerus -24.0986 12.9049 -83.4626
rradius 37.9427
rwrist 16.0845
rhand -1.45538 -51.9022
rfingers 7.12502
rthumb 24.1957 -80.3959
lclavicle 1.28962e-014 -3.37934e-015
lhumerus -54.5587 10.2276 70.3559
lradius 37.3317
lwrist -11.4451
lhand -4.92155 -30.0395
lfingers 7.12502
lthumb 20.8688 -1.14192
rfemur 18.0607 12.0445 36.6883
rtibia -1.90833e-014
rfoot -8.31011 -25.9005
rtoes -5.22052
lfemur -30.5656 -19.9492 -10.5386
ltibia 27.0983
lfoot -18.3039 24.6256
ltoes -16.5908
641
root 4.97506 15.3773 -13.6588 175.237 -51.2592 186.724
lowerback 8.39782 2.63632 5.05794
upperback -4.00397 4.14576 0.388802
thorax -8.64655 1.72173 -3.06143
lowerneck -8.94732 -6.86719 -11.2856
upperneck 16.8066 -9.82865 9.9619
head 7.68857 -4.74463 4.14368
rclavicle -1.26787e-013 -2.46493e-014
rhumerus -23.8231 12.6243 -83.6267
rradius 38.2998
rwrist 16.6745
rhand -1.53384 -51.6121
rfingers 7.12502
rthumb 24.1204 -80.1158
lclavicle -1.26787e-013 -2.46493e-014
lhumerus -54.6645 10.7095 69.6732
lradius 37.041
lwrist -11.9994
lhand -5.57799 -30.401
lfingers 7.12502
lthumb 20.238 -1.43533
rfemur 18.5782 11.8278 36.6025
rtibia 3.49861e-014
rfoot -8.0308 -25.5387
rtoes -6.14404
lfemur -30.9558 -22.6981 -9.21956
ltibia 26.0755
lfoot -19.324 26.7735
ltoes -15.7619
642
root 4.85796 15.3667 -13.7453 175.137 -50.8465 187.036
lowerback 8.15339 2.7623 5.13165
upperback -3.97663 4.31406 0.522538
thorax -8.46486 1.80962 -2.96809
lowerneck -8.97033 -6.9781 -11.1708
upperneck 16.7978 -9.96176 9.78422
head 7.69027 -4.81317 4.04872
rclavicle -2.84511e-014 1.03368e-014
rhumerus -23.5468 12.6856 -83.7382
rradius 38.6406
rwrist 16.6395
rhand -1.88387 -51.4656
rfingers 7.12502
rthumb 23.7848 -80.0135
lclavicle -2.84511e-014 1.03368e-014
lhumerus -54.709 10.9525 69.3588
lradius 36.8444
lwrist -11.9473
lhand -5.61485 -31.0315
lfingers 7.12502
lthumb 20.2026 -2.06207
rfemur 18.9756 11.6848 36.7847
rtibia -7.95139e-014
rfoot -7.81588 -25.0848
rtoes -6.5627
lfemur -31.5737 -25.4842 -7.45165
ltibia 25.4169
lfoot -20.9296 28.8309
ltoes -13.4462
643
root 4.74318 15.3682 -13.8291 174.919 -50.4717 187.646
lowerback 7.97122 2.8537 5.49166
upperback -4.04322 4.47306 0.653213
thorax -8.40355 1.86925 -3.04173
lowerneck -8.99223 -7.0643 -11.1758
upperneck 16.7812 -10.073 9.76539
head 7.70097 -4.86673 4.02902
rclavicle -7.1314e-015 -1.55052e-014
rhumerus -23.3712 12.8237 -83.8812
rradius 38.976
rwrist 16.7194
rhand -1.96249 -51.1314
rfingers 7.12502
rthumb 23.7094 -79.689
lclavicle -7.1314e-015 -1.55052e-014
lhumerus -54.7671 11.1403 68.9718
lradius 36.5594
lwrist -12.0576
lhand -4.90794 -31.2195
lfingers 7.12502
lthumb 20.8819 -2.32339
rfemur 19.1554 11.5324 37.0853
rtibia -6.36111e-015
rfoot -8.04063 -24.5769
rtoes -5.65351
lfemur -32.4224 -28.1708 -5.36773
ltibia 25.0184
lfoot -23.2719 30.3539
ltoes -7.95182
644
root 4.62192 15.3627 -13.9105 174.928 -50.1704 187.801
lowerback 7.89621 2.86802 5.63329
upperback -4.09886 4.50531 0.687201
thorax -8.41055 1.87544 -3.08553
lowerneck -8.96136 -7.13278 -11.1096
upperneck 16.6496 -10.1562 9.71138
head 7.65564 -4.90641 3.99097
rclavicle 2.01891e-014 -1.49089e-015
rhumerus -23.3422 13.232 -84.2069
rradius 39.4118
rwrist 16.4533
rhand -2.32882 -51.1249
rfingers 7.12502
rthumb 23.358 -79.7277
lclavicle 2.01891e-014 -1.49089e-015
lhumerus -54.8703 11.4246 68.5076
lradius 36.1984
lwrist -12.348
lhand -4.55623 -30.6885
lfingers 7.12502
lthumb 21.2197 -1.82994
rfemur 19.5783 11.296 37.1175
rtibia 2.54444e-014
rfoot -7.54335 -24.1295
rtoes -7.75153
lfemur -33.0111 -30.2083 -4.0545
ltibia 24.771
lfoot -25.0169 31.7236
ltoes -4.22545
645
root 4.49788 15.3467 -13.9964 174.922 -49.8752 187.768
lowerback 7.90418 2.87446 5.61401
upperback -4.12242 4.51364 0.701502
thorax -8.44264 1.879 -3.06217
lowerneck -8.78628 -7.18817 -10.8008
upperneck 16.4227 -10.2218 9.43612
head 7.52646 -4.94515 3.84733
rclavicle -1.09903e-013 1.70955e-014
rhumerus -23.4568 13.8385 -84.6495
rradius 39.9783
rwrist 15.7938
rhand -3.05704 -51.4967
rfingers 7.12502
rthumb 22.6592 -80.1865
lclavicle -1.09903e-013 1.70955e-014
lhumerus -55.0789 11.5329 68.1646
lradius 35.9638
lwrist -12.4572
lhand -5.17391 -30.0348
lfingers 7.12502
lthumb 20.6263 -1.11075
rfemur 20.2834 11.0049 37.1075
rtibia 4.45278e-014
rfoot -6.56346 -23.7351
rtoes -12.28
lfemur -33.175 -31.4166 -3.45897
ltibia 24.5752
lfoot -25.5233 33.0491
ltoes -4.37119
646
root 4.37279 15.3356 -14.08 175.048 -49.5978 187.622
lowerback 7.90235 2.92219 5.6626
upperback -4.17703 4.57757 0.592012
thorax -8.48285 1.90166 -3.21551
lowerneck -8.69118 -7.21592 -11.2948
upperneck 16.4972 -10.382 10.2665
head 7.62286 -4.99688 4.18704
rclavicle -6.63444e-015 -9.93923e-016
rhumerus -23.5888 13.8645 -85.0578
rradius 40.4489
rwrist 15.6337
rhand -3.05625 -51.3659
rfingers 7.12502
rthumb 22.66 -80.0556
lclavicle -6.63444e-015 -9.93923e-016
lhumerus -55.3537 11.499 67.6633
lradius 35.8381
lwrist -12.677
lhand -5.44544 -29.969
lfingers 7.12502
lthumb 20.3654 -1.01681
rfemur 20.917 10.7283 36.9627
rtibia 1.59028e-014
rfoot -6.0259 -23.3366
rtoes -14.6679
lfemur -33.1188 -32.1381 -3.21796
ltibia 24.3623
lfoot -26.1585 33.4423
ltoes -2.46224
647
root 4.24473 15.3318 -14.157 175.471 -49.3436 187.151
lowerback 7.9015 2.96293 5.61469
upperback -4.23702 4.61733 0.41853
thorax -8.53281 1.91613 -3.38032
lowerneck -8.6664 -7.2424 -11.3041
upperneck 16.5862 -10.4599 10.3767
head 7.66294 -5.02993 4.21678
rclavicle 3.0911e-014 1.94809e-014
rhumerus -23.7053 13.6441 -85.3698
rradius 40.8508
rwrist 15.8119
rhand -2.3473 -50.9171
rfingers 7.12502
rthumb 23.3403 -79.5221
lclavicle 3.0911e-014 1.94809e-014
lhumerus -55.4954 11.6677 67.0588
lradius 35.6149
lwrist -13.207
lhand -4.82771 -30.4606
lfingers 7.12502
lthumb 20.9589 -1.57296
rfemur 21.4044 10.489 36.4887
rtibia -2.54444e-014
rfoot -5.78628 -22.9007
rtoes -13.8663
lfemur -32.7065 -32.0979 -3.66386
ltibia 24.0688
lfoot -26.145 33.1618
ltoes -1.0882
648
root 4.11341 15.3345 -14.2425 175.748 -49.0154 186.668
lowerback 7.92745 2.97886 5.39092
upperback -4.22307 4.61165 0.365495
thorax -8.54446 1.92536 -3.31302
lowerneck -8.61894 -7.28403 -10.7169
upperneck 16.5716 -10.5353 9.95964
head 7.60264 -5.06579 3.97507
rclavicle -6.50647e-014 -1.49089e-014
rhumerus -23.8833 14.0234 -85.6856
rradius 41.3495
rwrist 15.5556
rhand -1.83919 -50.8191
rfingers 7.12502
rthumb 23.8276 -79.3614
lclavicle -6.50647e-014 -1.49089e-014
lhumerus -55.5552 12.1495 66.515
lradius 35.2481
lwrist -13.8798
lhand -4.51977 -30.7028
lfingers 7.12502
lthumb 21.2548 -1.84823
rfemur 22.0758 10.285 36.0143
rtibia -8.26944e-014
rfoot -5.85743 -22.3277
rtoes -11.2778
lfemur -31.6525 -31.0841 -4.80623
ltibia 23.7508
lfoot -24.1778 32.8437
ltoes -5.58844
649
root 3.97545 15.3386 -14.3355 176.154 -48.6232 185.932
lowerback 7.86729 3.03019 4.95419
upperback -4.18488 4.62084 0.281634
thorax -8.49041 1.95678 -3.15536
lowerneck -8.75672 -7.27949 -11.1132
upperneck 16.8115 -10.5112 10.1103
head 7.73348 -5.06286 4.08775
rclavicle 6.76241e-014 -1.19271e-015
rhumerus -24.1712 14.2949 -86.0296
rradius 41.856
rwrist 15.3342
rhand -1.42084 -50.8668
rfingers 7.12502
rthumb 24.2288 -79.3561
lclavicle 6.76241e-014 -1.19271e-015
lhumerus -55.6144 12.6501 66.0103
lradius 34.8142
lwrist -14.4045
lhand -4.5846 -30.7206
lfingers 7.12502
lthumb 21.1925 -1.85897
rfemur 22.8937 10.1404 35.3812
rtibia 5.08889e-014
rfoot -5.58065 -21.6561
rtoes -10.8016
lfemur -30.3277 -29.7538 -6.38354
ltibia 23.5186
lfoot -21.6378 32.4208
ltoes -12.2488
